<svg width="50" height="50" viewBox="0 0 50 50" fill="none" xmlns="http://www.w3.org/2000/svg">
<mask id="mask0_1_90" style="mask-type:alpha" maskUnits="userSpaceOnUse" x="0" y="0" width="50" height="50">
<rect width="50" height="50" fill="#FB9400"/>
</mask>
<g mask="url(#mask0_1_90)">
<path d="M22.9166 35.4167H27.0833V27.0833H35.4166V22.9167H27.0833V14.5833H22.9166V22.9167H14.5833V27.0833H22.9166V35.4167ZM25 45.8333C22.118 45.8333 19.4097 45.2865 16.875 44.1927C14.3402 43.099 12.1354 41.6146 10.2604 39.7396C8.38538 37.8646 6.901 35.6597 5.80725 33.125C4.7135 30.5903 4.16663 27.882 4.16663 25C4.16663 22.1181 4.7135 19.4097 5.80725 16.875C6.901 14.3403 8.38538 12.1354 10.2604 10.2604C12.1354 8.38542 14.3402 6.90105 16.875 5.8073C19.4097 4.71355 22.118 4.16667 25 4.16667C27.8819 4.16667 30.5902 4.71355 33.125 5.8073C35.6597 6.90105 37.8645 8.38542 39.7395 10.2604C41.6145 12.1354 43.0989 14.3403 44.1927 16.875C45.2864 19.4097 45.8333 22.1181 45.8333 25C45.8333 27.882 45.2864 30.5903 44.1927 33.125C43.0989 35.6597 41.6145 37.8646 39.7395 39.7396C37.8645 41.6146 35.6597 43.099 33.125 44.1927C30.5902 45.2865 27.8819 45.8333 25 45.8333ZM25 41.6667C29.6527 41.6667 33.5937 40.0521 36.8229 36.8229C40.052 33.5938 41.6666 29.6528 41.6666 25C41.6666 20.3472 40.052 16.4063 36.8229 13.1771C33.5937 9.94792 29.6527 8.33334 25 8.33334C20.3472 8.33334 16.4062 9.94792 13.177 13.1771C9.94788 16.4063 8.33329 20.3472 8.33329 25C8.33329 29.6528 9.94788 33.5938 13.177 36.8229C16.4062 40.0521 20.3472 41.6667 25 41.6667Z" fill="#FB9400"/>
</g>
</svg>
