<svg width="50" height="50" viewBox="0 0 50 50" fill="none" xmlns="http://www.w3.org/2000/svg">
<mask id="mask0_9_66" style="mask-type:alpha" maskUnits="userSpaceOnUse" x="0" y="0" width="50" height="50">
<rect width="50" height="50" fill="#D9D9D9"/>
</mask>
<g mask="url(#mask0_9_66)">
<path d="M10.4167 45.8333C9.27083 45.8333 8.28993 45.4254 7.47396 44.6094C6.65799 43.7934 6.25 42.8125 6.25 41.6667V12.5C6.25 11.3542 6.65799 10.3733 7.47396 9.5573C8.28993 8.74132 9.27083 8.33334 10.4167 8.33334H12.5V4.16667H16.6667V8.33334H33.3333V4.16667H37.5V8.33334H39.5833C40.7292 8.33334 41.7101 8.74132 42.526 9.5573C43.342 10.3733 43.75 11.3542 43.75 12.5V41.6667C43.75 42.8125 43.342 43.7934 42.526 44.6094C41.7101 45.4254 40.7292 45.8333 39.5833 45.8333H10.4167ZM10.4167 41.6667H39.5833V20.8333H10.4167V41.6667ZM10.4167 16.6667H39.5833V12.5H10.4167V16.6667Z" fill="#FB9400"/>
</g>
</svg>
